<?xml version="1.0"?>
<svg version="1.1" xmlns="http://www.w3.org/2000/svg" width="400" height="200" style="border: dashed 2px #aaa"><path fill="#06121a" d="M54.208,109.28l-3.538-0.87l0-4.64l14.848-0.29l0,4.93l-3.074,0.696l-7.714,25.694l-8.874,0l-4.582-14.79l-1.044-4.524l-1.45,6.322l-4.234,12.992l-8.816,0l-7.888-25.578l-2.552-0.812l0-4.64l15.196-0.29l0,4.93l-3.654,0.696l3.828,16.298l6.148-20.938l7.656-1.276l6.322,22.214z M91.64758,134.8l-1.044-3.77s-4.466,4.35-9.396,4.35c-5.626,0-9.048-3.306-9.048-9.106c0-6.844,5.162-9.57,13.978-9.57l4.06,0l0-3.19c0-2.958-1.566-4.234-4.466-4.234c-2.958,0-5.104,0.87-5.104,0.87l-0.87,3.654l-5.22,0l-0.406-8.584s7.018-2.32,12.586-2.32c8.816,0,12.18,3.074,12.18,11.484l0,14.326l4.35,1.044l0,4.64z M90.19758,121.634l-3.306,0c-4.524,0-6.322,1.16-6.322,3.77c0,2.204,1.218,3.48,3.422,3.48c3.074,0,6.206-3.364,6.206-3.364l0-3.886z M131.34916,127.376l2.088,4.408c-2.842,2.088-6.09,3.596-9.86,3.596c-6.67,0-8.584-4.64-8.584-11.31l0-13.34l-5.394,0l0-5.626l5.394-0.754l0-8.004l8.7-1.566l0,9.57l8.12,0l0,6.38l-8.12,0l0,12.76c0,3.712,0.638,5.22,3.074,5.22c1.566,0,3.828-0.928,4.582-1.334z M164.72874,125.346l2.9,5.104c-1.45,1.276-5.974,4.93-12.47,4.93c-9.57,0-15.08-5.916-15.08-15.776c0-10.324,5.8-16.704,15.95-16.704c4.988,0,10.15,2.03,10.15,2.03l-0.29,9.512l-5.22,0l-0.812-4.118s-1.682-0.464-4.002-0.464c-4.176,0-6.786,2.784-6.786,8.584c0,6.322,2.436,9.976,7.25,9.976c4.06,0,6.612-2.03,8.41-3.074z M187.03032,89.85l0,16.994c1.682-1.392,5.452-3.944,9.744-3.944c5.916,0,9.106,3.944,9.106,10.44l0,15.37l4.06,1.45l0,4.64l-15.776,0l0-4.64l3.016-1.392l0-14.036c0-2.9-1.16-4.64-3.828-4.64c-3.248,0-6.322,3.074-6.322,3.074l0,15.544l3.074,1.45l0,4.64l-16.414,0l0-4.64l4.64-1.45l0-32.596l-4.64-1.16l0-4.64z M222.8459,124.65l0.464,3.77s2.03,0.58,4.872,0.58c3.19,0,4.756-0.986,4.756-2.842c0-4.756-15.486-3.016-15.486-13.34c0-7.25,5.8-9.918,11.948-9.918c5.22,0,10.788,1.74,10.788,1.74l-0.232,8.7l-4.93,0l-0.87-3.48s-1.682-0.58-4.002-0.58c-2.494,0-4.002,1.044-4.002,2.958c0,4.698,15.486,2.668,15.486,12.702c0,6.67-5.394,10.44-13.34,10.44c-5.51,0-10.672-1.276-10.672-1.276l0-9.454l5.22,0z M270.31948,127.376l2.088,4.408c-2.842,2.088-6.09,3.596-9.86,3.596c-6.67,0-8.584-4.64-8.584-11.31l0-13.34l-5.394,0l0-5.626l5.394-0.754l0-8.004l8.7-1.566l0,9.57l8.12,0l0,6.38l-8.12,0l0,12.76c0,3.712,0.638,5.22,3.074,5.22c1.566,0,3.828-0.928,4.582-1.334z M294.70906,102.9c9.396,0,14.616,5.684,14.616,15.66c0,10.44-6.09,16.82-15.486,16.82c-9.454,0-14.79-4.93-14.79-15.95c0-10.44,6.206-16.53,15.66-16.53z M294.41906,109.86c-4.234,0-6.38,2.32-6.38,9.28c0,6.38,1.856,9.28,6.09,9.28c4.176,0,6.206-2.61,6.206-9.57c0-5.916-1.74-8.99-5.916-8.99z M342.06664,125.346l2.9,5.104c-1.45,1.276-5.974,4.93-12.47,4.93c-9.57,0-15.08-5.916-15.08-15.776c0-10.324,5.8-16.704,15.95-16.704c4.988,0,10.15,2.03,10.15,2.03l-0.29,9.512l-5.22,0l-0.812-4.118s-1.682-0.464-4.002-0.464c-4.176,0-6.786,2.784-6.786,8.584c0,6.322,2.436,9.976,7.25,9.976c4.06,0,6.612-2.03,8.41-3.074z M364.36822,115.138l3.828,0l3.944-5.916l-2.552-0.812l0-4.64l14.964-0.29l0,4.93l-4.06,0.754l-5.394,7.598l6.496,12.006l4.408,1.392l0,4.64l-10.73,0l-7.192-14.152l-3.712,0l0,8.062l3.19,1.45l0,4.64l-16.53,0l0-4.64l4.64-1.45l0-32.596l-4.64-1.16l0-4.64l13.34-0.464l0,25.288z"/><path fill="#" d=""/></svg>
